<svg xmlns="http://www.w3.org/2000/svg" width="1920" height="473" viewBox="0 0 1920 473">
  <g id="Group_951" data-name="Group 951" transform="translate(7040 20671)">
    <path id="sveta-fedarava-tI_Odb7ZU6M-unsplash" d="M0,0H1920V473H0Z" transform="translate(-7040 -20671)" fill="#e8e8e8" opacity="0.852"/>
    <g id="Group_950" data-name="Group 950" transform="translate(-6205.258 -20803)">
      <g id="Innlandet_element_morkegronn-07" transform="translate(-38.243 314.177)">
        <path id="Path_708" data-name="Path 708" d="M123.045,155.443l55.248-55.248,55.257,55.248h34.625L178.292,65.56,88.41,155.443Z" transform="translate(-88.41 -1.544)" fill="#ddd"/>
        <path id="Path_709" data-name="Path 709" d="M131.245,56.888,74.357,0,0,74.357,17.313,91.67,74.357,34.635l56.888,56.879Z" transform="translate(134.848)" fill="#ddd"/>
      </g>
      <g id="Innlandet_element_morkegronn-07-2" data-name="Innlandet_element_morkegronn-07" transform="translate(819.164 280.693)">
        <path id="Path_708-2" data-name="Path 708" d="M123.045,155.443l55.248-55.248,55.257,55.248h34.625L178.292,65.56,88.41,155.443Z" transform="translate(-88.41 -1.544)" fill="#ddd"/>
        <path id="Path_709-2" data-name="Path 709" d="M131.245,56.888,74.357,0,0,74.357,17.313,91.67,74.357,34.635l56.888,56.879Z" transform="translate(134.848)" fill="#ddd"/>
      </g>
      <g id="Innlandet_element_morkegronn-07-3" data-name="Innlandet_element_morkegronn-07" transform="translate(331.102 186.327)">
        <path id="Path_708-3" data-name="Path 708" d="M123.045,155.443l55.248-55.248,55.257,55.248h34.625L178.292,65.56,88.41,155.443Z" transform="translate(-88.41 -1.544)" fill="#ddd"/>
        <path id="Path_709-3" data-name="Path 709" d="M131.245,56.888,74.357,0,0,74.357,17.313,91.67,74.357,34.635l56.888,56.879Z" transform="translate(134.848)" fill="#ddd"/>
      </g>
      <g id="Innlandet_element_morkegronn-07-4" data-name="Innlandet_element_morkegronn-07" transform="translate(435.86 494.458) rotate(180)">
        <path id="Path_708-4" data-name="Path 708" d="M34.635,89.883,89.882,34.635,145.14,89.883h34.625L89.882,0,0,89.883Z" transform="translate(0 64.016)" fill="#ddd"/>
        <path id="Path_709-4" data-name="Path 709" d="M131.245,56.888,74.357,0,0,74.357,17.313,91.67,74.357,34.635l56.888,56.879Z" transform="translate(134.848)" fill="#ddd"/>
      </g>
      <g id="Innlandet_element_morkegronn-07-5" data-name="Innlandet_element_morkegronn-07" transform="translate(856.954 494.458) rotate(180)">
        <path id="Path_708-5" data-name="Path 708" d="M34.635,89.883,89.882,34.635,145.14,89.883h34.625L89.882,0,0,89.883Z" transform="translate(0 64.016)" fill="#ddd"/>
        <path id="Path_709-5" data-name="Path 709" d="M131.245,56.888,74.357,0,0,74.357,17.313,91.67,74.357,34.635l56.888,56.879Z" transform="translate(134.848)" fill="#ddd"/>
      </g>
    </g>
  </g>
</svg>
